<?xml version="1.0" encoding="utf-8"?>
<svg version="1.1" id="Layer_1" xmlns="http://www.w3.org/2000/svg" xmlns:xlink="http://www.w3.org/1999/xlink" x="0px" y="0px"
	 viewBox="0 0 297.8 397.1" style="enable-background:new 0 0 297.8 397.1;" xml:space="preserve">
<style type="text/css">
	.st0{fill:#292929;}
</style>
<path id="XMLID_168_" class="st0" d="M297.8,397.1c-99.5,0-198.5,0-297.8,0C0,264.7,0,132.5,0,0c99.2,0,198.3,0,297.8,0
	C297.8,132.3,297.8,264.5,297.8,397.1z M48.4,197.6c-11.8,4.2-23.6,18.7-26.8,33.3c-4.1,18.7,4.3,33,22.5,38.7
	c2.5,0.8,5.1,1.7,7.8,1.8c13.4,0.6,26.9,1.8,40.3,1.3c16-0.5,31.8-2,47.7,2.3c9.1,2.4,18.8,2.2,27.6-1.1c10.8-4.1,21.6-2.7,32.5-2
	c13.4,0.9,27,2.1,40.3,1.3c16.3-1,28.9-8.7,34.3-25.3c6.3-19.3-3.8-41.4-22.9-50.5c-0.9-0.4-1.9-0.6-3.4-1c0.7,1.7,1.1,2.8,1.5,3.8
	c4.6,11.6,2.7,23.4-5,30.6c-7.7,7.1-16.8,7.2-29.2,1.3c-8.5-4.1-17.3-7.8-26.2-10.9c-10.6-3.7-20.3-2.5-28,6.9
	c-3,3.6-6.9,5.5-11.8,5.4c-6-0.1-11.1-2.3-14.8-7c-4.6-5.8-10.6-7.4-17.4-5.3c-5.2,1.6-10.3,3.8-15.5,5.5
	c-9.1,2.9-18.2,6.7-27.6,8.2c-15,2.5-27-6.3-27.8-19.5C46.1,209.4,47.7,203.5,48.4,197.6z M97.5,382.7c-1.1-1.9-1.9-3.3-2.7-4.7
	c-6.6-10.6-16.4-17.9-26.4-24.8c-14.9-10.1-22.7-24.3-25.8-41.7c-1.6-8.8-3.4-17.7-6-26.2c-3.9-12.5-11.8-22.4-22.3-31.2
	c0,43.4,0,85.9,0,128.6C42,382.7,69.4,382.7,97.5,382.7z M14.2,73.4c1.1-1.1,1.6-1.6,2.1-2.2C28.7,54.3,45.1,42.1,64,33.6
	c42.5-19.2,86.7-22.1,131.9-12.6c33.7,7.1,63.6,21.5,86.5,48.1c0.1,0.2,0.6,0.1,1,0.1c0-18.2,0-36.4,0-54.7c-89.9,0-179.6,0-269.3,0
	C14.2,34.2,14.2,53.4,14.2,73.4z M283.3,382.7c0-42.9,0-85.3,0-128.3c-1.2,1-1.8,1.6-2.4,2.1c-14.4,13.4-20.9,30.6-23.1,49.6
	c-2.3,19-10.6,34.4-25.7,46.2c-4.2,3.3-8.3,6.7-12.3,10.2c-4.9,4.3-9.7,8.6-14.3,13.1c-1.8,1.7-2.8,4.2-4.7,7
	C228.9,382.7,256,382.7,283.3,382.7z M91,277.7c16.6,20.9,38.1,28.5,62.9,27.6c22-0.8,40.1-9.8,54.6-27.6
	c-6.3-0.7-11.6-1.6-16.9-1.7c-4.2-0.1-8.7,0.2-12.7,1.4c-17.9,5.3-35.6,5.8-53.5,0.3c-4.5-1.4-9.5-1.9-14.2-1.9
	C104.9,276,98.6,277,91,277.7z M126.9,144.6c7.1,0,11.5-3.7,13.1-9.5c1.2-4.3,0.5-8-3.6-10.4c-9-5.3-18.2-10.4-27.2-15.7
	c-10-5.9-20.9-8.9-32.1-5.2c-11.6,3.9-22.7,9.4-33.9,14.4c-2.8,1.2-5.1,3.8-3.1,6.6c0.9,1.3,4.8,1.4,6.9,0.7
	c5.9-2.2,11.5-5.2,17.2-7.9c10-4.7,19.1-3.8,28,3.3c8.8,7.1,18.1,13.6,27.3,20.2C122.2,142.8,125.4,143.8,126.9,144.6z M215,103.3
	c-13.8-0.3-22.3,4.2-30.6,9.3c-7.1,4.3-14.3,8.5-21.6,12.4c-4,2.2-5.4,5.3-4.7,9.5c1.5,9.6,10.7,14,18.7,8.6
	c9.8-6.6,19.5-13.5,28.6-20.9c9.4-7.7,19-8.6,29.7-3.4c5.8,2.9,11.7,5.7,17.7,8.1c1.5,0.6,3.8-0.7,5.7-1.2c-0.6-1.9-0.6-4.7-1.9-5.6
	C242.8,111.3,228,104.8,215,103.3z M114.6,183.8c-2.7-5.8-2.4-7.9,1.9-10.9c5.7-3.9,6.3-7.2,1.8-12.6c-7.5-8.8-17.2-12.5-28.6-10.3
	c-8.5,1.6-16.9,3.9-21.3,12.9c-2.9,5.9-6.4,11.6-8.8,15.9c7.8-0.9,17.8-3.7,27.4-2.8C96.6,176.7,105.8,181.1,114.6,183.8z
	 M183.2,184.5c18.3-11.8,37.5-12.1,57.6-5.2c-5.9-4.3-7.7-10.3-9.8-16.6c-1.1-3.3-4.2-6.5-7.3-8.3c-4.1-2.3-8.9-3.9-13.6-4.5
	c-12-1.6-22.4,2.3-30.4,11.5c-3.5,3.9-3.1,7.5,0.2,9.9C186.3,176,186.5,177,183.2,184.5z M13.9,97.6c0,4.7-1.5,10.2,0.4,14.1
	c1.7,3.5,7.1,5.2,11,7.8c-2.7,0.8-5.5,1.8-8.4,2.3c-4.8,0.9-3,4.6-2.9,7.1c0.1,1.2,2.2,2.9,3.7,3.2c3.7,0.8,7.5,0.9,11.3,1.3
	c-3.2,2.7-6.5,4.2-9.8,5.8c-6.4,3-6.8,4.1-4.3,11.8c5.3-3.1,10.5-5.9,15.5-9.2c6.8-4.6,7.7-7.7,5.6-15.8c-0.9-3.5-2.1-7.1-2.1-10.7
	C33.8,103.6,26.7,96.8,13.9,97.6z M283.6,97.2c-10.1,0.5-15.9,6-17.7,16.2c-1,5.6-2.2,11.1-2.8,16.7c-0.3,2.7-0.6,6.3,0.9,8.1
	c5.1,6.2,12.3,9.5,19.8,13.7c0-3-0.2-4.8,0-6.6c0.7-4.3-0.8-6.8-5.3-7.9c-3-0.7-5.8-2.4-8.7-3.6c0.1-0.5,0.3-1,0.4-1.5
	c4.4,0,8.8,0,13.3,0c0-4.2,0-7.8,0-11.7c-3.5-0.8-6.9-1.6-10.2-2.4c0-0.3,0-0.6,0-0.9c3.4-1.2,6.8-2.4,10.3-3.6
	C283.6,108.2,283.6,102.9,283.6,97.2z M141.5,163.7c-0.9,0-1.8-0.1-2.7-0.1c-0.2,1.9-0.7,3.9-0.7,5.8c-0.1,8.9-1.9,16.7-9.8,22.2
	c-2.8,2-5.8,4.4-7.5,7.3c-2,3.4-3,7.4-3.9,11.3c-0.3,1.1,1.3,2.7,2,4.1c0.6,0,1.3,0.1,1.9,0.1c-2.6-9.6,2.6-15.3,9.2-19.5
	c8.9-5.5,11.7-13.5,11.6-23.2C141.4,169,141.5,166.4,141.5,163.7z M162.6,163.8c-0.5-0.1-1-0.2-1.5-0.3c-0.5,0.9-1.4,1.7-1.4,2.6
	c-0.1,10.9-0.3,21.7,11,28.4c6.9,4.1,11.3,10.2,10.4,18.9c0,0.2,0.5,0.4,1.4,1.1c0.7-1.5,1.6-2.8,1.9-4.2c0.9-4.6-0.9-8.5-4.1-11.7
	c-3.2-3.2-6.3-6.4-9.8-9.2c-4.6-3.6-6.4-8.3-6.9-13.8C163.3,171.6,162.9,167.7,162.6,163.8z M247.4,146.2c1.9,7,3.7,14,5.5,20.9
	C257.9,158.8,256.2,152.5,247.4,146.2z M44,167.1c1.9-6.9,3.8-13.8,5.7-20.5C41.1,151.9,39.1,159,44,167.1z M156.6,382.4
	c0-0.4,0-0.7,0-1.1c-5.6,0-11.1,0-16.7,0c0,0.4,0,0.7,0,1.1C145.6,382.4,151.1,382.4,156.6,382.4z"/>
</svg>
